<?xml version="1.0" standalone="no"?>
<!DOCTYPE svg PUBLIC "-//W3C//DTD SVG 20010904//EN"
 "http://www.w3.org/TR/2001/REC-SVG-20010904/DTD/svg10.dtd">
<svg version="1.0" xmlns="http://www.w3.org/2000/svg"
 width="330.000000pt" height="150.000000pt" viewBox="0 0 330.000000 150.000000"
 preserveAspectRatio="xMidYMid meet">

<g transform="translate(0.000000,150.000000) scale(0.100000,-0.100000)"
fill="#000000" stroke="none">
<path d="M256 1188 c-20 -28 -20 -47 -1 -68 13 -14 13 -19 0 -44 -19 -37 -19
-71 0 -90 12 -11 13 -21 6 -34 -11 -22 -12 -219 -1 -300 4 -32 4 -58 -1 -60
-5 -2 -9 -22 -9 -44 0 -37 6 -47 60 -100 33 -33 60 -64 60 -69 0 -15 -40 -10
-46 6 -4 8 -14 15 -24 15 -12 0 -20 9 -22 25 -2 18 -7 22 -17 16 -10 -6 -12
-19 -7 -45 l7 -36 403 0 404 0 7 38 c12 62 8 523 -4 535 -8 8 -11 -7 -11 -51
0 -35 -4 -62 -10 -62 -5 0 -10 6 -10 12 0 7 -75 88 -167 180 l-168 168 45 0
c44 0 48 -3 160 -115 80 -80 116 -110 118 -99 3 10 -34 55 -94 115 l-99 99 45
0 c43 0 50 -4 113 -68 54 -55 67 -73 67 -99 0 -18 4 -34 9 -37 10 -7 22 126
14 165 -7 38 -23 27 -23 -17 0 -19 -4 -34 -10 -34 -5 0 -10 6 -10 14 0 8 -13
26 -30 39 -35 30 -37 37 -11 37 28 0 52 11 45 21 -3 5 -174 9 -389 9 l-384 0
-15 -22z m98 -6 c3 -5 -13 -26 -34 -47 l-40 -39 0 41 c0 31 4 43 18 46 29 8
51 7 56 -1z m120 -10 c3 -5 -40 -53 -95 -108 l-99 -99 0 40 c0 33 7 47 43 84
23 24 35 40 27 36 -10 -6 -8 -1 4 13 10 12 23 19 27 16 5 -3 12 2 15 10 6 17
69 23 78 8z m371 -182 c104 -104 195 -190 202 -190 9 0 13 -18 13 -56 0 -31
-3 -54 -7 -52 -14 6 -473 473 -473 481 0 4 17 7 38 7 35 0 48 -11 227 -190z
m-44 -86 l257 -249 1 -121 1 -120 -265 265 -265 266 -125 -125 -125 -125 0 40
c0 38 7 47 128 168 l127 127 245 -244 c134 -135 247 -243 251 -240 20 12 -18
55 -247 285 l-249 249 -127 -127 -128 -128 0 45 c0 44 2 47 122 167 68 68 127
122 132 120 6 -2 126 -116 267 -253z m-311 92 c0 -2 -8 -10 -17 -17 -16 -13
-17 -12 -4 4 13 16 21 21 21 13z m293 -353 c134 -134 251 -243 260 -243 9 0
17 -7 17 -15 0 -8 -6 -15 -14 -15 -8 0 -21 7 -30 15 -8 8 -27 15 -43 15 -23 0
-63 36 -233 205 l-205 205 -80 -80 -80 -80 133 -133 c72 -73 132 -136 132
-140 0 -13 -31 -7 -36 8 -4 9 -19 15 -38 15 -27 0 -49 18 -156 125 l-125 125
120 120 c66 66 123 119 127 118 4 -2 117 -112 251 -245z m107 -243 c0 -3 -19
-4 -42 -2 -40 4 -53 13 -174 134 -100 99 -133 126 -137 114 -5 -12 28 -51 113
-138 66 -66 117 -125 114 -130 -3 -5 -14 -2 -23 6 -10 9 -29 16 -42 16 -18 0
-58 33 -149 125 l-125 125 55 55 55 55 177 -177 c98 -98 178 -180 178 -183z
m-490 85 c84 -82 107 -111 94 -114 -10 -2 -23 4 -29 13 -7 9 -23 16 -36 16
-15 0 -45 21 -86 62 -56 56 -63 67 -63 102 0 22 2 37 4 35 3 -2 55 -53 116
-114z"/>
<path d="M1530 1195 c0 -13 87 -15 725 -15 638 0 725 2 725 15 0 13 -87 15
-725 15 -638 0 -725 -2 -725 -15z"/>
<path d="M1540 785 l0 -165 25 -6 c47 -12 144 1 172 22 55 41 68 70 68 149 0
59 -4 79 -21 102 -33 46 -79 63 -166 63 l-78 0 0 -165z m163 85 c34 -27 45
-92 24 -142 -11 -26 -24 -39 -51 -48 -20 -6 -40 -9 -46 -5 -6 4 -10 50 -10
111 l0 104 29 0 c15 0 40 -9 54 -20z"/>
<path d="M1876 878 c-4 -66 -4 -99 2 -220 l2 -37 110 -3 110 -3 0 33 0 32 -70
0 -70 0 0 135 0 135 -39 0 -39 0 -6 -72z"/>
<path d="M2170 785 l0 -165 45 0 45 0 0 165 0 165 -45 0 -45 0 0 -165z"/>
<path d="M2350 785 l0 -165 40 0 40 0 0 90 c0 50 3 90 8 90 4 0 30 -42 57 -93
48 -89 51 -92 85 -92 35 0 35 0 42 55 8 74 9 210 2 249 -6 27 -10 31 -40 31
l-34 0 0 -89 c0 -50 -4 -92 -8 -95 -4 -2 -31 38 -60 90 l-53 94 -39 0 -40 0 0
-165z"/>
<path d="M2710 781 l0 -169 40 1 40 2 0 68 0 67 55 0 55 0 0 -71 c0 -61 2 -70
16 -65 9 3 27 6 40 6 l24 0 0 165 0 165 -40 0 -40 0 0 -65 0 -65 -55 0 -55 0
0 65 0 65 -40 0 -40 0 0 -169z"/>
<path d="M1567 383 c-71 -19 66 -23 704 -23 624 0 709 2 709 15 0 13 -84 15
-697 14 -384 -1 -706 -3 -716 -6z"/>
</g>
</svg>
