<?xml version="1.0" standalone="no"?>
<!DOCTYPE svg PUBLIC "-//W3C//DTD SVG 20010904//EN"
 "http://www.w3.org/TR/2001/REC-SVG-20010904/DTD/svg10.dtd">
<svg version="1.0" xmlns="http://www.w3.org/2000/svg"
 width="936.000000pt" height="425.000000pt" viewBox="0 0 936.000000 425.000000"
 preserveAspectRatio="xMidYMid meet">

<g transform="translate(0.000000,425.000000) scale(0.100000,-0.100000)"
fill="#000000" stroke="none">
<path d="M687 3423 c-4 -3 -7 -546 -7 -1205 l0 -1198 1199 0 c947 0 1201 3
1208 12 10 14 18 2346 8 2378 -6 20 -25 20 -1204 20 -659 0 -1201 -3 -1204 -7z
m279 -108 c6 -15 -151 -179 -164 -171 -4 2 -7 42 -7 88 l0 83 65 6 c36 3 73 6
83 7 10 1 20 -5 23 -13z m382 2 c8 -10 -54 -78 -263 -287 -151 -151 -277 -274
-281 -272 -4 1 -8 48 -8 105 l-1 102 159 162 c87 89 162 160 167 158 4 -3 11
0 15 6 5 8 3 9 -7 4 -12 -8 -12 -6 -1 8 11 12 35 17 100 20 48 1 92 4 98 5 6
1 16 -4 22 -11z m507 -2 c24 -4 143 -118 577 -552 l547 -548 3 -97 c2 -57 -1
-101 -7 -107 -7 -7 -218 197 -665 644 -473 473 -651 658 -642 664 13 8 123 5
187 -4z m412 -7 c7 -5 11 -15 10 -21 -1 -7 3 -11 9 -10 6 1 46 -34 90 -79 43
-44 72 -77 64 -73 -9 5 -12 4 -7 -1 5 -5 12 -9 16 -9 4 0 128 -117 275 -260
l267 -261 4 -112 c4 -98 3 -112 -11 -104 -31 17 -934 927 -930 937 5 14 196 7
213 -7z m378 5 c11 -3 94 -82 185 -175 l165 -169 0 -108 c0 -91 -2 -108 -14
-101 -20 11 -551 542 -551 551 0 4 5 9 12 11 16 6 178 -2 203 -9z m333 -80 c2
-47 -1 -83 -6 -83 -6 0 -44 34 -86 76 -42 42 -76 80 -76 86 0 5 36 8 83 6 l82
-3 3 -82z m-942 -455 c282 -281 510 -516 507 -522 -3 -6 -2 -8 2 -3 11 10 56
-33 48 -46 -3 -6 -1 -7 4 -4 11 7 50 -30 46 -42 -2 -3 3 -6 10 -6 6 -1 10 -7
9 -15 -2 -8 0 -12 4 -7 11 10 65 -44 57 -57 -3 -6 -2 -8 2 -3 10 9 116 -93
109 -104 -2 -4 1 -11 7 -15 8 -4 9 -3 5 4 -12 19 -1 14 20 -10 10 -12 13 -18
5 -13 -10 5 -12 4 -7 -4 4 -6 11 -9 15 -7 4 3 31 -19 60 -48 l53 -54 2 -106
c2 -85 0 -106 -11 -104 -7 2 -342 331 -743 733 l-730 730 -349 -350 c-193
-192 -354 -345 -358 -341 -4 4 -6 53 -5 109 l3 102 347 347 c191 191 353 348
361 348 8 0 245 -230 527 -512z m221 -602 l737 -733 1 -111 c0 -95 -2 -109
-15 -102 -8 5 -339 333 -735 729 -396 397 -724 721 -730 721 -6 0 -166 -155
-355 -345 -190 -190 -349 -345 -355 -345 -7 0 -10 39 -8 107 l2 107 353 353
c194 194 356 353 360 353 5 0 340 -330 745 -734z m-424 36 c175 -175 315 -321
312 -325 -3 -4 -2 -5 2 -2 10 8 113 -97 106 -108 -3 -6 -2 -7 4 -4 11 7 236
-216 228 -226 -3 -4 -2 -5 2 -2 11 8 113 -97 106 -109 -3 -6 -2 -7 2 -3 12 10
266 -243 258 -257 -3 -6 -3 -8 2 -4 10 10 35 -10 35 -28 0 -11 -22 -14 -102
-14 l-103 0 -587 587 -588 588 -223 -220 c-123 -121 -227 -227 -231 -235 -7
-15 15 -38 546 -558 82 -79 145 -148 142 -153 -3 -5 -50 -9 -105 -9 l-100 0
-341 338 c-187 185 -347 343 -354 350 -8 7 -14 19 -14 25 0 11 669 687 680
687 3 0 148 -143 323 -318z m185 -565 c270 -271 492 -499 492 -505 0 -9 -30
-12 -102 -12 l-103 1 -374 369 c-206 204 -377 370 -381 370 -3 0 -22 -16 -40
-35 l-35 -36 327 -326 c180 -179 325 -330 322 -335 -3 -4 -50 -8 -105 -8
l-100 0 -350 351 c-192 193 -349 357 -347 365 4 18 278 294 292 294 6 0 233
-222 504 -493z m-926 -215 c148 -147 268 -276 268 -285 0 -15 -13 -17 -110
-17 l-111 0 -172 171 -172 170 -3 100 c-4 106 0 129 20 129 7 0 133 -121 280
-268z m-197 -197 c48 -47 83 -90 80 -95 -8 -13 -162 -13 -170 0 -8 12 -14 167
-7 174 9 9 7 10 97 -79z"/>
<path d="M2365 3190 c27 -27 51 -50 54 -50 3 0 -17 23 -44 50 -27 28 -51 50
-54 50 -3 0 17 -22 44 -50z"/>
<path d="M4448 2705 c-48 -6 -89 -13 -90 -16 -2 -2 -2 -218 0 -481 l3 -476
117 -7 c139 -9 340 -1 355 14 6 6 21 11 33 11 13 0 29 7 38 15 8 8 20 15 26
15 15 0 86 55 117 90 94 106 137 324 98 493 -64 276 -306 395 -697 342z m289
-207 c110 -30 176 -140 172 -287 -3 -120 -45 -209 -121 -257 -33 -21 -49 -24
-106 -22 l-67 3 -3 275 c-2 250 -1 276 15 288 9 6 27 12 40 12 12 0 44 -6 70
-12z"/>
<path d="M6676 2685 c-8 -7 -10 -147 -8 -481 l3 -471 84 -2 c46 -1 100 1 120
5 l35 6 0 244 c0 133 4 245 9 248 16 10 66 -68 55 -86 -4 -7 -3 -8 4 -4 11 6
17 -13 13 -37 -1 -5 4 -5 10 -1 9 5 10 2 6 -10 -5 -11 -3 -15 5 -10 8 5 9 1 4
-12 -4 -10 -4 -15 0 -11 10 10 46 -52 38 -65 -5 -7 -2 -8 6 -3 10 6 12 4 6
-11 -4 -10 -4 -15 0 -11 10 9 85 -123 77 -136 -4 -6 -1 -7 7 -2 10 6 12 4 7
-9 -5 -11 -3 -15 5 -10 8 5 9 2 5 -10 -4 -9 -3 -15 1 -12 5 3 16 -11 27 -30
l18 -34 104 0 c57 0 113 5 124 10 18 10 19 26 19 479 0 366 -3 470 -12 473 -7
2 -62 1 -123 -2 l-110 -5 -1 -235 c-1 -129 -2 -241 -3 -247 -2 -28 -28 -11
-51 34 -14 26 -46 84 -72 130 -67 117 -129 232 -150 276 -11 21 -26 41 -34 44
-27 10 -216 8 -228 -2z"/>
</g>
</svg>
