<?xml version="1.0" standalone="no"?>
<!DOCTYPE svg PUBLIC "-//W3C//DTD SVG 20010904//EN"
 "http://www.w3.org/TR/2001/REC-SVG-20010904/DTD/svg10.dtd">
<svg version="1.0" xmlns="http://www.w3.org/2000/svg"
 width="936.000000pt" height="425.000000pt" viewBox="0 0 936.000000 425.000000"
 preserveAspectRatio="xMidYMid meet">

<g transform="translate(0.000000,425.000000) scale(0.100000,-0.100000)"
fill="#000000" stroke="none">
<path d="M690 3410 c-10 -6 -11 -10 -2 -10 9 0 12 -241 12 -1170 0 -773 -3
-1170 -10 -1170 -5 0 -10 -7 -10 -15 0 -13 140 -15 1200 -15 l1200 0 0 1195 0
1195 -1187 0 c-750 0 -1194 -4 -1203 -10z m2350 -54 c0 -35 -10 -55 -24 -50
-18 7 -26 -50 -19 -121 5 -50 4 -55 -14 -55 -26 0 -195 168 -191 189 3 12 14
15 43 14 22 -2 59 0 83 3 35 4 41 8 32 19 -14 16 1 23 53 24 33 1 37 -2 37
-23z m-2043 8 c-3 -3 -12 -4 -19 -1 -8 3 -5 6 6 6 11 1 17 -2 13 -5z m3 -44
c0 -11 -10 -28 -22 -38 -57 -46 -108 -96 -129 -127 -16 -24 -31 -35 -44 -33
-18 3 -20 12 -23 105 l-3 102 68 4 c162 8 153 9 153 -13z m358 11 c8 -1 12
-10 10 -21 -4 -27 -547 -570 -570 -570 -16 0 -18 11 -18 113 l0 112 181 182
c201 201 182 190 319 186 36 0 71 -2 78 -2z m1069 -542 c296 -297 546 -542
555 -545 15 -5 17 -20 15 -139 -1 -74 -5 -137 -9 -140 -10 -10 -48 18 -54 40
-7 22 -1165 1185 -1244 1250 -48 39 -63 69 -37 78 6 2 62 2 124 -1 l111 -5
539 -538z m155 221 c178 -174 346 -336 373 -360 28 -24 53 -52 57 -64 3 -12 6
-72 7 -134 1 -96 -1 -114 -15 -119 -12 -4 -23 3 -37 23 -11 16 -226 236 -478
488 -253 253 -459 465 -459 471 0 21 10 23 120 17 l110 -5 322 -317z m254 139
l179 -180 1 -92 c1 -51 5 -110 9 -131 7 -32 5 -41 -10 -52 -11 -8 -13 -14 -7
-14 7 0 12 -4 12 -10 0 -5 -9 -10 -20 -10 -23 0 -40 28 -40 66 0 23 -48 76
-275 303 -151 151 -275 280 -275 287 0 19 15 21 135 17 l112 -3 179 -181z
m-1281 119 c142 -149 1425 -1418 1434 -1418 17 0 30 -68 32 -174 2 -84 0 -99
-15 -108 -13 -8 -15 -13 -5 -24 6 -8 8 -14 4 -14 -4 0 -2 -6 4 -13 6 -8 8 -17
5 -20 -4 -3 -22 11 -41 31 -27 29 -32 38 -19 40 9 2 16 9 16 15 0 15 -1452
1467 -1465 1466 -5 -1 -163 -158 -350 -348 -187 -190 -347 -346 -355 -346 -12
0 -16 21 -18 120 l-3 119 353 353 c221 221 360 353 372 353 11 0 34 -15 51
-32z m-809 -164 c-4 -19 -11 -34 -16 -34 -11 0 -13 60 -4 85 12 30 27 -11 20
-51z m2254 -30 c0 -8 -7 -14 -15 -14 -15 0 -21 21 -9 33 10 9 24 -2 24 -19z
m-730 -890 l749 -747 -1 -128 c-1 -119 -2 -129 -21 -135 -20 -6 -37 9 -37 36
0 8 -326 341 -725 740 l-726 725 -351 -353 c-224 -226 -356 -351 -365 -348
-11 5 -13 28 -11 115 l3 110 360 364 c198 201 364 365 368 366 4 0 345 -335
757 -745z m-1524 540 c-4 -19 -11 -34 -16 -34 -11 0 -13 60 -4 85 12 30 27
-11 20 -51z m1467 -881 c383 -384 697 -703 697 -710 0 -17 10 -16 32 3 16 16
20 15 53 -7 19 -13 33 -28 32 -34 -10 -29 -127 -30 -127 -1 0 19 -33 26 -131
26 l-85 0 -587 587 -587 587 -225 -224 -225 -225 267 -268 c148 -148 306 -303
353 -344 47 -41 88 -84 92 -94 4 -10 14 -19 23 -19 9 0 15 -9 15 -26 0 -23 -3
-25 -32 -22 -24 2 -32 8 -30 19 3 21 -35 29 -141 29 l-81 0 -336 335 c-184
184 -346 342 -358 351 -13 9 -22 24 -20 35 3 21 676 699 693 699 5 0 324 -314
708 -697z m-183 -188 c278 -277 506 -511 508 -520 4 -18 6 -18 -133 -15 l-110
2 -354 351 c-194 194 -361 360 -371 370 -16 17 -18 16 -48 -11 l-31 -29 315
-317 c173 -174 319 -316 324 -316 6 0 10 -8 10 -18 0 -11 9 -27 20 -37 15 -13
17 -21 9 -31 -12 -15 -39 -8 -39 11 0 18 -33 25 -130 25 l-86 0 -354 355
c-195 195 -357 360 -359 366 -4 12 298 319 314 319 6 0 237 -227 515 -505z
m-1290 241 c0 -8 -4 -18 -10 -21 -5 -3 -10 3 -10 14 0 12 5 21 10 21 6 0 10
-6 10 -14z m4 -108 c7 -70 7 -98 0 -110 -13 -21 -24 19 -24 90 0 83 15 97 24
20z m354 -360 c155 -155 282 -287 282 -293 0 -5 10 -15 23 -20 35 -16 28 -40
-13 -40 -27 0 -34 4 -32 16 3 22 -26 29 -129 29 l-86 0 -149 151 c-82 83 -164
165 -181 182 l-33 30 0 112 c0 113 3 127 24 119 6 -2 139 -131 294 -286z
m-342 -43 c10 -19 26 -35 35 -35 10 0 41 -25 71 -57 29 -31 66 -68 82 -82 16
-14 37 -34 45 -44 9 -10 27 -29 40 -42 32 -34 22 -55 -28 -55 -39 0 -63 14
-39 23 30 10 -9 22 -90 27 l-87 5 -5 110 c-5 110 -11 124 -24 52 -8 -44 -26
-45 -38 -1 -10 32 -1 134 11 134 4 0 16 -16 27 -35z m-16 -300 c0 -8 -4 -15
-10 -15 -5 0 -10 7 -10 15 0 8 5 15 10 15 6 0 10 -7 10 -15z"/>
<path d="M4352 3390 l3 -30 2040 0 c2169 0 2070 -3 2052 44 -6 15 -167 16
-2052 16 l-2046 0 3 -30z"/>
<path d="M4545 2691 c-11 -5 -55 -10 -99 -10 -76 -1 -78 -2 -72 -23 3 -13 6
-224 6 -470 l0 -448 208 0 c168 0 212 3 228 15 10 8 29 15 40 15 12 0 27 7 34
15 7 8 20 15 29 15 20 1 91 55 125 97 78 94 115 269 91 422 -15 92 -55 187
-98 233 -30 32 -130 98 -149 98 -8 0 -23 6 -34 14 -11 8 -46 17 -79 20 -143
13 -211 15 -230 7z m193 -170 c120 -59 128 -65 163 -142 41 -89 31 -277 -18
-357 -58 -94 -159 -138 -256 -111 l-37 10 0 294 c0 269 1 295 18 304 21 13
106 14 130 2z"/>
<path d="M5428 2682 l-108 -3 0 -467 0 -467 315 0 316 0 -3 94 -3 94 -170 -2
c-98 -1 -182 2 -198 8 l-27 11 0 364 c0 201 -3 366 -7 368 -5 2 -56 2 -115 0z"/>
<path d="M6174 2681 c-2 -2 -4 -214 -4 -470 l0 -466 125 0 125 0 0 445 c0 245
3 455 6 467 6 22 4 22 -121 25 -70 2 -129 1 -131 -1z"/>
<path d="M6680 2213 l0 -468 102 1 103 1 3 257 c2 235 4 256 20 256 29 0 38
-12 94 -120 31 -58 64 -121 75 -140 11 -20 39 -71 63 -115 23 -44 51 -94 62
-110 l21 -31 111 3 111 2 3 465 2 466 -112 0 -113 0 0 -252 0 -253 -25 -2
c-21 -2 -29 5 -51 50 -28 59 -109 209 -163 307 -20 36 -46 84 -58 108 l-22 42
-113 0 -113 0 0 -467z"/>
<path d="M7694 2664 c3 -9 6 -219 6 -467 l0 -452 105 0 105 0 2 195 3 195 160
0 160 0 3 -196 2 -196 108 5 c59 2 108 5 109 6 2 1 3 209 3 462 l1 459 -110 3
-111 3 -2 -183 -3 -183 -153 -3 -152 -3 -10 26 c-6 15 -10 98 -10 186 l0 159
-111 0 c-97 0 -110 -2 -105 -16z"/>
<path d="M4353 1083 c-3 -6 -3 -20 -1 -30 3 -17 84 -18 2043 -21 1141 -1 2043
2 2047 6 5 5 6 20 3 33 l-6 24 -2041 0 c-1570 0 -2042 -3 -2045 -12z"/>
</g>
</svg>
